<mxfile host="app.diagrams.net" modified="2020-10-20T20:35:48.154Z" agent="5.0 (X11)" etag="bDdu-G3-F1_sDm7GWB74" version="13.8.1" type="github">
  <diagram id="RRSpzi9O4--s-IGtSOq4" name="Page-1">
    <mxGraphModel dx="1422" dy="703" grid="1" gridSize="10" guides="1" tooltips="1" connect="1" arrows="1" fold="1" page="1" pageScale="1" pageWidth="850" pageHeight="1100" math="0" shadow="0">
      <root>
        <mxCell id="0" />
        <mxCell id="1" parent="0" />
        <mxCell id="MpLqfxGzZEfrv4FzZsAI-19" value="" style="rounded=0;whiteSpace=wrap;html=1;" vertex="1" parent="1">
          <mxGeometry x="140" y="330" width="600" height="280" as="geometry" />
        </mxCell>
        <mxCell id="MpLqfxGzZEfrv4FzZsAI-10" value="" style="rounded=0;whiteSpace=wrap;html=1;" vertex="1" parent="1">
          <mxGeometry x="380" y="420" width="350" height="120" as="geometry" />
        </mxCell>
        <mxCell id="MpLqfxGzZEfrv4FzZsAI-5" value="" style="rounded=0;whiteSpace=wrap;html=1;" vertex="1" parent="1">
          <mxGeometry x="240" y="790" width="320" height="230" as="geometry" />
        </mxCell>
        <mxCell id="MpLqfxGzZEfrv4FzZsAI-18" style="edgeStyle=orthogonalEdgeStyle;rounded=0;orthogonalLoop=1;jettySize=auto;html=1;exitX=0.071;exitY=0;exitDx=0;exitDy=0;entryX=0.75;entryY=1;entryDx=0;entryDy=0;exitPerimeter=0;" edge="1" parent="1" source="MpLqfxGzZEfrv4FzZsAI-1" target="MpLqfxGzZEfrv4FzZsAI-15">
          <mxGeometry relative="1" as="geometry">
            <mxPoint x="280" y="550" as="targetPoint" />
            <Array as="points" />
          </mxGeometry>
        </mxCell>
        <mxCell id="MpLqfxGzZEfrv4FzZsAI-1" value="dev nodeJs ( dev front )" style="rounded=0;whiteSpace=wrap;html=1;" vertex="1" parent="1">
          <mxGeometry x="280" y="840" width="140" height="60" as="geometry" />
        </mxCell>
        <mxCell id="MpLqfxGzZEfrv4FzZsAI-3" style="edgeStyle=orthogonalEdgeStyle;rounded=0;orthogonalLoop=1;jettySize=auto;html=1;entryX=0.25;entryY=1;entryDx=0;entryDy=0;" edge="1" parent="1" source="MpLqfxGzZEfrv4FzZsAI-2" target="MpLqfxGzZEfrv4FzZsAI-1">
          <mxGeometry relative="1" as="geometry">
            <Array as="points">
              <mxPoint x="315" y="950" />
            </Array>
          </mxGeometry>
        </mxCell>
        <mxCell id="MpLqfxGzZEfrv4FzZsAI-12" style="edgeStyle=orthogonalEdgeStyle;rounded=0;orthogonalLoop=1;jettySize=auto;html=1;entryX=0.291;entryY=1.025;entryDx=0;entryDy=0;entryPerimeter=0;" edge="1" parent="1" source="MpLqfxGzZEfrv4FzZsAI-2" target="MpLqfxGzZEfrv4FzZsAI-10">
          <mxGeometry relative="1" as="geometry">
            <mxPoint x="520" y="640" as="targetPoint" />
            <Array as="points">
              <mxPoint x="482" y="620" />
              <mxPoint x="482" y="620" />
            </Array>
          </mxGeometry>
        </mxCell>
        <mxCell id="MpLqfxGzZEfrv4FzZsAI-2" value="dev nginx" style="rounded=0;whiteSpace=wrap;html=1;" vertex="1" parent="1">
          <mxGeometry x="400" y="930" width="120" height="60" as="geometry" />
        </mxCell>
        <mxCell id="MpLqfxGzZEfrv4FzZsAI-4" value="/shahkar-admin-ui" style="text;html=1;align=center;verticalAlign=middle;resizable=0;points=[];autosize=1;" vertex="1" parent="1">
          <mxGeometry x="280" y="960" width="110" height="20" as="geometry" />
        </mxCell>
        <mxCell id="MpLqfxGzZEfrv4FzZsAI-6" value="mohammadi system" style="text;html=1;align=center;verticalAlign=middle;resizable=0;points=[];autosize=1;" vertex="1" parent="1">
          <mxGeometry x="340" y="800" width="120" height="20" as="geometry" />
        </mxCell>
        <mxCell id="MpLqfxGzZEfrv4FzZsAI-7" value="portal" style="rounded=0;whiteSpace=wrap;html=1;" vertex="1" parent="1">
          <mxGeometry x="610" y="470" width="100" height="50" as="geometry" />
        </mxCell>
        <mxCell id="MpLqfxGzZEfrv4FzZsAI-8" value="apimui" style="rounded=0;whiteSpace=wrap;html=1;" vertex="1" parent="1">
          <mxGeometry x="510" y="470" width="90" height="50" as="geometry" />
        </mxCell>
        <mxCell id="MpLqfxGzZEfrv4FzZsAI-9" value="imt, ..." style="rounded=0;whiteSpace=wrap;html=1;" vertex="1" parent="1">
          <mxGeometry x="400" y="470" width="100" height="50" as="geometry" />
        </mxCell>
        <mxCell id="MpLqfxGzZEfrv4FzZsAI-11" value="&lt;div&gt;Tomcat&lt;/div&gt;&lt;div&gt;&lt;br&gt;&lt;/div&gt;" style="text;html=1;align=center;verticalAlign=middle;resizable=0;points=[];autosize=1;" vertex="1" parent="1">
          <mxGeometry x="670" y="400" width="50" height="30" as="geometry" />
        </mxCell>
        <mxCell id="MpLqfxGzZEfrv4FzZsAI-13" value="/portal , ..." style="text;html=1;align=center;verticalAlign=middle;resizable=0;points=[];autosize=1;" vertex="1" parent="1">
          <mxGeometry x="475" y="900" width="70" height="20" as="geometry" />
        </mxCell>
        <mxCell id="MpLqfxGzZEfrv4FzZsAI-17" style="edgeStyle=orthogonalEdgeStyle;rounded=0;orthogonalLoop=1;jettySize=auto;html=1;exitX=0.5;exitY=0;exitDx=0;exitDy=0;entryX=0.5;entryY=1;entryDx=0;entryDy=0;" edge="1" parent="1" source="MpLqfxGzZEfrv4FzZsAI-15" target="MpLqfxGzZEfrv4FzZsAI-16">
          <mxGeometry relative="1" as="geometry" />
        </mxCell>
        <mxCell id="MpLqfxGzZEfrv4FzZsAI-31" style="edgeStyle=orthogonalEdgeStyle;rounded=0;orthogonalLoop=1;jettySize=auto;html=1;exitX=1;exitY=0.5;exitDx=0;exitDy=0;entryX=0;entryY=0.75;entryDx=0;entryDy=0;" edge="1" parent="1" source="MpLqfxGzZEfrv4FzZsAI-15" target="MpLqfxGzZEfrv4FzZsAI-10">
          <mxGeometry relative="1" as="geometry" />
        </mxCell>
        <mxCell id="MpLqfxGzZEfrv4FzZsAI-15" value="admin-ui-proxy" style="rounded=0;whiteSpace=wrap;html=1;" vertex="1" parent="1">
          <mxGeometry x="200" y="480" width="120" height="60" as="geometry" />
        </mxCell>
        <mxCell id="MpLqfxGzZEfrv4FzZsAI-28" style="edgeStyle=orthogonalEdgeStyle;rounded=0;orthogonalLoop=1;jettySize=auto;html=1;exitX=0.75;exitY=0;exitDx=0;exitDy=0;entryX=0.5;entryY=1;entryDx=0;entryDy=0;" edge="1" parent="1" source="MpLqfxGzZEfrv4FzZsAI-16" target="MpLqfxGzZEfrv4FzZsAI-27">
          <mxGeometry relative="1" as="geometry" />
        </mxCell>
        <mxCell id="MpLqfxGzZEfrv4FzZsAI-29" style="edgeStyle=orthogonalEdgeStyle;rounded=0;orthogonalLoop=1;jettySize=auto;html=1;exitX=0.5;exitY=0;exitDx=0;exitDy=0;entryX=0.5;entryY=1;entryDx=0;entryDy=0;" edge="1" parent="1" source="MpLqfxGzZEfrv4FzZsAI-16" target="MpLqfxGzZEfrv4FzZsAI-26">
          <mxGeometry relative="1" as="geometry" />
        </mxCell>
        <mxCell id="MpLqfxGzZEfrv4FzZsAI-30" style="edgeStyle=orthogonalEdgeStyle;rounded=0;orthogonalLoop=1;jettySize=auto;html=1;exitX=0.25;exitY=0;exitDx=0;exitDy=0;entryX=0.325;entryY=1.083;entryDx=0;entryDy=0;entryPerimeter=0;" edge="1" parent="1" source="MpLqfxGzZEfrv4FzZsAI-16" target="MpLqfxGzZEfrv4FzZsAI-23">
          <mxGeometry relative="1" as="geometry" />
        </mxCell>
        <mxCell id="MpLqfxGzZEfrv4FzZsAI-16" value="nginx" style="rounded=0;whiteSpace=wrap;html=1;" vertex="1" parent="1">
          <mxGeometry x="200" y="360" width="120" height="60" as="geometry" />
        </mxCell>
        <mxCell id="MpLqfxGzZEfrv4FzZsAI-20" value="192.85.85.47" style="text;html=1;align=center;verticalAlign=middle;resizable=0;points=[];autosize=1;" vertex="1" parent="1">
          <mxGeometry x="540" y="350" width="90" height="20" as="geometry" />
        </mxCell>
        <mxCell id="MpLqfxGzZEfrv4FzZsAI-23" value="service 1" style="rounded=0;whiteSpace=wrap;html=1;" vertex="1" parent="1">
          <mxGeometry x="40" y="80" width="120" height="60" as="geometry" />
        </mxCell>
        <mxCell id="MpLqfxGzZEfrv4FzZsAI-26" value="service 2" style="rounded=0;whiteSpace=wrap;html=1;" vertex="1" parent="1">
          <mxGeometry x="200" y="80" width="120" height="60" as="geometry" />
        </mxCell>
        <mxCell id="MpLqfxGzZEfrv4FzZsAI-27" value="service n" style="rounded=0;whiteSpace=wrap;html=1;" vertex="1" parent="1">
          <mxGeometry x="370" y="80" width="120" height="60" as="geometry" />
        </mxCell>
      </root>
    </mxGraphModel>
  </diagram>
</mxfile>
